<?xml version="1.0" standalone="no"?>
<!DOCTYPE svg PUBLIC "-//W3C//DTD SVG 20010904//EN"
 "http://www.w3.org/TR/2001/REC-SVG-20010904/DTD/svg10.dtd">
<svg version="1.0" xmlns="http://www.w3.org/2000/svg"
 width="4000.000000pt" height="4000.000000pt" viewBox="0 0 4000.000000 4000.000000"
 preserveAspectRatio="xMidYMid meet">
<metadata>
Created by potrace 1.14, written by Peter Selinger 2001-2017
</metadata>
<g transform="translate(0.000000,4000.000000) scale(0.100000,-0.100000)"
fill="#000000" stroke="none">
<path d="M19330 39989 c-30 -4 -86 -10 -125 -14 -38 -4 -81 -8 -95 -10 -34 -5
-132 -15 -200 -20 -30 -2 -80 -7 -110 -10 -63 -6 -118 -11 -210 -19 -72 -7
-142 -14 -210 -21 -25 -3 -67 -7 -95 -10 -67 -6 -142 -14 -185 -20 -19 -3 -55
-8 -80 -10 -105 -12 -420 -60 -605 -91 -16 -3 -43 -7 -59 -9 -15 -3 -35 -7
-45 -9 -9 -3 -36 -8 -61 -10 -25 -3 -115 -17 -200 -31 -85 -14 -171 -28 -190
-31 -19 -2 -46 -7 -58 -10 -13 -3 -43 -7 -65 -10 -23 -3 -53 -7 -67 -10 -23
-4 -157 -25 -240 -38 -19 -3 -46 -8 -59 -10 -12 -3 -44 -8 -70 -11 -25 -3 -71
-9 -101 -15 -30 -5 -68 -11 -85 -14 -16 -2 -50 -8 -75 -12 -25 -4 -52 -8 -60
-9 -45 -6 -182 -27 -225 -35 -27 -6 -68 -12 -90 -15 -68 -9 -107 -15 -134 -20
-14 -2 -132 -20 -261 -40 -129 -20 -242 -37 -250 -40 -8 -2 -37 -6 -65 -10
-27 -3 -57 -8 -65 -10 -8 -2 -37 -6 -65 -10 -27 -3 -88 -12 -135 -20 -47 -8
-105 -17 -130 -20 -25 -3 -56 -8 -70 -10 -50 -9 -145 -24 -185 -29 -16 -2 -88
-13 -160 -25 -71 -11 -191 -30 -265 -41 -74 -12 -146 -23 -160 -25 -49 -8
-156 -25 -195 -30 -22 -4 -47 -8 -55 -10 -8 -2 -35 -7 -60 -10 -25 -3 -70 -10
-100 -15 -30 -5 -77 -12 -105 -16 -27 -3 -52 -8 -55 -9 -3 -2 -33 -7 -65 -10
-33 -4 -62 -9 -65 -10 -3 -2 -26 -6 -50 -10 -25 -3 -101 -15 -170 -26 -69 -11
-138 -22 -155 -25 -16 -2 -41 -6 -55 -9 -14 -3 -38 -7 -55 -9 -16 -2 -50 -8
-75 -12 -25 -4 -55 -8 -67 -10 -12 -1 -34 -5 -50 -8 -15 -3 -46 -8 -68 -11
-23 -3 -52 -8 -65 -10 -14 -3 -45 -8 -70 -11 -25 -3 -52 -7 -60 -9 -8 -2 -35
-7 -60 -10 -25 -3 -70 -10 -100 -15 -30 -5 -73 -12 -95 -15 -22 -3 -67 -10
-100 -15 -33 -5 -78 -12 -100 -15 -22 -3 -51 -7 -65 -10 -14 -3 -45 -7 -70
-11 -25 -3 -70 -9 -100 -14 -30 -5 -74 -12 -97 -15 -111 -14 -129 -16 -143
-20 -8 -2 -39 -7 -69 -10 -30 -4 -61 -8 -70 -10 -9 -1 -38 -6 -66 -9 -155 -20
-370 -76 -387 -101 -4 -5 -8 -7 -8 -3 0 10 -83 -36 -141 -78 -70 -51 -132
-123 -212 -246 -41 -62 -219 -306 -396 -543 -177 -236 -331 -441 -341 -455
-114 -153 -305 -410 -318 -429 -9 -13 -22 -28 -27 -35 -6 -6 -48 -63 -95 -126
-47 -63 -87 -117 -90 -120 -3 -3 -23 -30 -45 -60 -22 -30 -130 -176 -240 -325
-110 -148 -212 -286 -225 -305 -14 -19 -31 -42 -38 -50 -8 -8 -90 -118 -183
-245 -93 -126 -175 -237 -182 -245 -7 -8 -23 -31 -37 -50 -13 -19 -28 -39 -32
-45 -8 -10 -164 -219 -194 -260 -8 -11 -118 -159 -245 -330 -127 -170 -237
-319 -245 -330 -64 -89 -111 -152 -122 -164 -7 -8 -21 -25 -30 -40 -15 -22
-197 -269 -219 -296 -5 -5 -33 -44 -63 -85 -30 -41 -60 -82 -67 -90 -6 -8 -85
-114 -175 -235 -90 -121 -168 -227 -175 -235 -6 -8 -55 -73 -108 -145 -53 -71
-105 -141 -115 -155 -63 -85 -252 -338 -264 -355 -25 -34 -150 -201 -173 -231
-20 -28 -174 -236 -342 -462 -42 -57 -81 -109 -86 -115 -6 -7 -35 -46 -65 -87
-30 -41 -58 -79 -62 -85 -5 -5 -28 -37 -53 -70 -25 -33 -53 -71 -64 -85 -18
-23 -154 -207 -193 -261 -15 -19 -151 -203 -238 -319 -10 -14 -43 -59 -74
-100 -30 -41 -59 -79 -63 -85 -5 -5 -19 -26 -33 -45 -13 -19 -27 -37 -30 -40
-3 -3 -30 -39 -60 -80 -29 -41 -62 -84 -72 -94 -10 -11 -18 -23 -18 -27 0 -4
-6 -14 -13 -21 -11 -11 -177 -234 -567 -761 -52 -70 -133 -179 -180 -242 -47
-62 -93 -124 -102 -137 -16 -21 -196 -265 -441 -593 -57 -77 -150 -203 -207
-280 -57 -77 -147 -198 -200 -270 -91 -122 -279 -376 -430 -580 -37 -49 -127
-171 -200 -270 -144 -195 -195 -264 -207 -280 -5 -5 -24 -30 -43 -55 -19 -25
-41 -52 -47 -60 -23 -28 -148 -186 -175 -220 -121 -157 -215 -315 -274 -460
l-39 -95 -2 -160 c-2 -88 2 -176 7 -195 11 -42 38 -224 46 -312 13 -139 130
-694 173 -818 5 -14 19 -63 31 -110 24 -90 51 -186 80 -285 45 -148 232 -829
254 -922 2 -10 16 -61 31 -113 14 -52 37 -135 50 -185 38 -146 49 -184 144
-540 51 -187 99 -362 106 -390 16 -55 100 -368 111 -410 1 -5 21 -77 44 -160
23 -82 43 -157 45 -165 2 -8 13 -51 25 -95 12 -44 26 -93 30 -110 5 -16 16
-57 25 -90 9 -33 57 -211 107 -395 50 -184 131 -481 180 -660 49 -179 91 -332
93 -341 2 -9 65 -243 141 -520 75 -277 177 -650 225 -829 49 -179 93 -341 99
-360 102 -359 121 -452 121 -605 0 -140 -7 -178 -106 -565 -31 -124 -58 -232
-60 -240 -2 -8 -15 -60 -30 -114 -14 -55 -27 -109 -29 -120 -3 -12 -21 -84
-41 -161 -20 -77 -38 -147 -40 -155 -2 -8 -53 -213 -114 -455 -62 -242 -113
-447 -115 -455 -2 -8 -108 -430 -235 -936 -141 -565 -232 -946 -234 -985 -9
-158 38 -258 178 -377 21 -18 75 -67 120 -110 44 -42 98 -90 120 -107 21 -16
43 -35 49 -40 6 -6 40 -35 76 -65 35 -30 70 -59 76 -65 6 -5 33 -28 59 -50 27
-22 53 -44 59 -50 6 -5 38 -32 71 -60 33 -27 62 -52 65 -55 3 -3 32 -28 65
-55 33 -28 62 -52 65 -55 4 -5 155 -134 260 -224 172 -145 227 -192 236 -201
14 -13 115 -100 179 -155 28 -23 74 -63 104 -89 30 -25 62 -53 71 -61 9 -8 43
-37 75 -65 90 -76 105 -88 129 -110 13 -11 47 -41 77 -66 170 -146 368 -315
394 -338 17 -14 93 -80 170 -146 77 -66 142 -122 145 -125 3 -3 34 -30 70 -60
36 -30 70 -59 76 -65 6 -5 32 -28 58 -50 27 -22 58 -49 70 -60 31 -28 95 -83
147 -127 24 -20 55 -46 69 -58 14 -12 49 -43 79 -68 30 -26 59 -51 65 -57 19
-17 419 -360 445 -381 13 -10 28 -24 35 -30 6 -5 45 -39 86 -74 41 -35 77 -67
80 -70 3 -3 34 -30 70 -60 36 -30 67 -57 70 -60 3 -3 68 -59 145 -125 77 -66
153 -132 170 -146 46 -40 195 -168 256 -220 30 -26 126 -108 214 -184 88 -75
183 -156 210 -180 28 -23 86 -73 131 -111 44 -38 104 -89 134 -114 30 -25 88
-74 130 -110 66 -57 143 -122 200 -170 10 -8 55 -46 101 -85 160 -136 199
-188 199 -269 0 -72 -15 -104 -149 -318 -80 -129 -375 -618 -409 -678 -25 -44
-470 -792 -500 -840 -82 -131 -892 -1485 -906 -1515 -74 -156 -45 -261 99
-361 50 -35 118 -70 695 -362 305 -154 607 -306 670 -339 63 -33 183 -95 265
-138 83 -43 215 -111 295 -152 135 -70 193 -100 500 -260 266 -139 375 -196
560 -290 107 -55 278 -143 380 -195 253 -130 584 -300 830 -426 442 -226 971
-499 1135 -586 221 -117 396 -205 430 -216 118 -39 212 9 300 155 42 69 205
400 405 820 26 55 96 199 155 320 59 121 143 294 187 385 44 91 126 260 183
375 56 116 159 325 227 465 69 140 176 359 238 485 62 127 158 322 213 435 54
113 149 306 209 430 61 124 155 317 210 430 56 113 148 302 206 420 57 118
151 310 207 425 56 116 142 291 191 390 48 99 89 182 89 185 2 4 48 106 75
165 5 11 21 54 36 95 28 79 42 105 29 55 -8 -36 -13 -60 -21 -100 -3 -16 -9
-48 -14 -70 -5 -22 -14 -69 -19 -105 -16 -93 -21 -122 -26 -145 -2 -11 -7 -42
-10 -70 -4 -27 -8 -61 -10 -74 -2 -13 -7 -45 -11 -70 -3 -25 -8 -57 -10 -71
-4 -27 -24 -185 -39 -312 -3 -24 -7 -59 -10 -78 -2 -19 -7 -59 -10 -89 -4 -30
-8 -61 -10 -70 -1 -9 -6 -45 -10 -81 -3 -36 -8 -72 -10 -80 -2 -8 -7 -44 -10
-80 -4 -36 -8 -67 -10 -70 -2 -3 -6 -30 -10 -60 -3 -30 -8 -62 -10 -70 -2 -8
-6 -37 -10 -65 -3 -27 -8 -61 -10 -75 -2 -14 -9 -61 -15 -105 -6 -44 -13 -93
-15 -110 -3 -16 -16 -111 -30 -210 -14 -99 -27 -193 -30 -210 -2 -16 -7 -52
-10 -80 -3 -27 -8 -60 -11 -73 -2 -12 -7 -44 -10 -70 -3 -26 -7 -58 -9 -72 -2
-14 -13 -95 -25 -180 -11 -85 -22 -166 -25 -180 -2 -14 -7 -47 -10 -75 -6 -53
-33 -263 -40 -305 -2 -14 -7 -47 -10 -75 -4 -27 -8 -61 -10 -75 -2 -14 -7 -47
-10 -75 -4 -27 -8 -61 -10 -75 -2 -14 -9 -63 -15 -110 -6 -47 -13 -96 -15
-110 -2 -14 -7 -46 -10 -72 -3 -26 -10 -80 -15 -120 -10 -71 -15 -108 -26
-193 -3 -22 -7 -51 -9 -65 -2 -14 -6 -50 -10 -80 -4 -30 -8 -66 -10 -80 -2
-14 -7 -45 -10 -70 -4 -25 -9 -57 -10 -73 -2 -15 -9 -62 -14 -105 -6 -42 -13
-93 -15 -112 -3 -19 -11 -80 -20 -135 -8 -55 -17 -122 -21 -150 -3 -27 -7 -61
-10 -75 -6 -31 -12 -72 -20 -130 -3 -25 -10 -70 -15 -100 -26 -155 -30 -276
-9 -337 25 -78 98 -132 211 -158 57 -12 273 -45 403 -60 28 -3 61 -8 75 -10
71 -10 172 -23 240 -30 31 -3 123 -14 170 -20 19 -2 60 -7 90 -10 30 -4 66 -8
80 -10 14 -2 59 -7 100 -10 41 -4 82 -9 91 -10 8 -2 49 -6 90 -10 41 -3 81 -8
89 -10 8 -2 47 -6 85 -10 39 -3 108 -10 155 -16 47 -5 105 -11 130 -14 25 -3
63 -7 85 -9 22 -3 65 -7 95 -10 30 -4 71 -8 90 -11 19 -3 58 -7 85 -10 28 -3
68 -7 90 -10 22 -2 81 -10 130 -15 107 -13 161 -20 195 -25 14 -2 52 -6 85 -9
33 -4 76 -8 95 -11 35 -4 81 -10 175 -20 28 -3 66 -8 85 -10 19 -2 62 -7 94
-10 33 -4 67 -8 75 -10 9 -2 48 -6 86 -10 39 -4 81 -8 95 -10 14 -2 57 -7 95
-11 39 -3 77 -8 85 -9 8 -2 47 -6 85 -10 86 -8 125 -12 190 -20 28 -3 66 -7
85 -9 19 -2 62 -7 95 -10 33 -4 78 -9 100 -11 219 -22 264 -26 290 -30 17 -2
57 -7 90 -10 33 -4 74 -8 90 -10 17 -2 50 -6 75 -9 57 -7 214 -26 260 -31 19
-3 55 -7 80 -10 25 -3 61 -7 80 -10 19 -2 78 -9 130 -15 52 -6 111 -13 130
-16 19 -3 60 -7 90 -9 30 -3 71 -7 90 -10 19 -2 64 -7 100 -10 36 -3 81 -8
100 -10 19 -2 69 -7 110 -9 41 -3 104 -8 140 -11 126 -11 243 -17 545 -30 72
-3 159 -8 195 -10 223 -12 300 -17 340 -20 25 -2 74 -7 110 -10 36 -3 92 -8
125 -11 33 -2 74 -8 90 -11 52 -10 473 -5 494 6 30 17 61 74 76 143 10 49 12
140 9 403 -2 187 -6 360 -8 385 -2 25 -7 95 -10 155 -4 61 -9 142 -11 180 -16
256 -23 599 -30 1310 -5 664 -14 1147 -30 1650 -26 852 -34 1321 -40 2275 -2
316 -6 600 -8 630 -3 30 -8 98 -11 150 -11 175 -17 265 -21 330 -11 163 -14
344 -5 305 18 -76 54 -189 120 -375 23 -63 43 -122 45 -130 2 -8 29 -89 60
-180 31 -91 59 -174 62 -185 2 -11 9 -29 13 -40 5 -11 28 -76 50 -145 23 -69
45 -134 50 -145 5 -11 23 -65 41 -120 18 -55 35 -104 38 -110 3 -5 6 -14 7
-20 2 -5 27 -82 57 -170 31 -88 101 -293 157 -455 56 -162 114 -333 130 -380
16 -47 81 -238 145 -425 64 -187 127 -374 141 -415 13 -41 27 -82 31 -90 8
-19 8 -19 18 -55 4 -16 10 -34 14 -40 3 -5 6 -14 7 -20 3 -15 292 -860 414
-1210 23 -66 53 -156 67 -200 14 -44 29 -84 33 -90 4 -5 10 -21 13 -35 4 -22
88 -270 104 -310 3 -8 7 -19 9 -25 1 -5 59 -176 129 -380 69 -203 128 -377
130 -385 20 -75 141 -414 162 -452 36 -67 95 -123 149 -144 92 -35 155 -20
654 157 96 34 200 70 230 80 66 22 359 124 415 145 22 8 47 17 55 19 8 2 121
40 250 85 129 45 273 94 320 110 47 16 123 43 170 59 107 37 593 205 805 277
88 31 165 57 170 58 6 2 17 6 25 9 8 3 76 27 150 52 74 25 185 64 245 85 61
22 144 50 185 64 41 14 145 49 231 79 86 31 212 74 280 97 421 143 539 184
584 200 28 11 115 43 195 71 251 89 323 134 352 218 14 40 17 176 5 261 -4 30
-9 71 -12 90 -2 19 -7 51 -10 70 -3 19 -8 55 -10 80 -3 25 -8 56 -10 70 -2 14
-7 50 -10 80 -3 30 -8 62 -10 70 -2 8 -7 44 -10 80 -3 36 -8 72 -10 80 -2 8
-7 38 -10 65 -3 28 -7 64 -10 80 -2 17 -7 53 -11 80 -3 28 -8 59 -9 70 -4 25
-13 96 -20 160 -3 28 -8 64 -11 80 -3 17 -7 41 -9 55 -2 14 -7 48 -10 75 -3
28 -8 66 -10 85 -3 19 -8 53 -10 75 -3 22 -7 51 -10 65 -6 39 -17 132 -20 160
-3 28 -16 127 -20 151 -2 9 -6 40 -10 70 -9 69 -11 85 -18 134 -3 22 -9 65
-13 95 -3 30 -8 63 -10 73 -2 10 -6 46 -9 80 -4 34 -8 64 -10 67 -1 3 -6 30
-9 60 -4 30 -8 69 -11 85 -24 186 -37 285 -41 310 -2 17 -6 46 -9 65 -2 19 -7
51 -9 70 -3 19 -13 89 -21 155 -9 66 -19 136 -21 155 -3 19 -7 51 -9 70 -2 19
-8 64 -14 100 -6 36 -13 86 -16 112 -5 51 -13 106 -20 153 -3 17 -7 53 -10 80
-3 28 -8 62 -10 78 -3 15 -7 39 -10 55 -2 15 -6 48 -9 74 -3 26 -8 64 -11 85
-3 21 -10 72 -16 113 -5 41 -14 104 -19 140 -12 86 -18 125 -25 185 -3 28 -8
61 -10 75 -2 14 -7 43 -9 65 -11 90 -17 131 -21 145 -2 8 -6 42 -10 75 -3 33
-8 67 -10 75 -3 8 -7 35 -9 60 -3 25 -7 61 -10 80 -3 19 -13 88 -21 152 -9 65
-18 126 -20 137 -2 11 -6 48 -10 82 -4 35 -8 66 -10 69 -1 3 -6 32 -9 65 -4
33 -9 67 -11 75 -2 8 -6 38 -10 65 -3 28 -8 64 -10 80 -28 186 -45 331 -45
383 0 77 30 141 89 185 49 38 113 69 266 132 50 20 99 41 110 46 28 12 299
123 430 175 61 25 119 49 130 54 25 11 154 64 350 142 83 33 164 66 180 73 17
8 125 52 240 99 116 46 231 93 258 105 26 11 48 20 50 20 3 -1 29 9 217 85
194 79 198 80 230 94 22 10 77 33 90 37 15 5 47 18 65 26 11 4 106 42 210 84
105 42 199 80 210 85 56 26 471 190 481 190 7 0 14 4 16 9 2 6 16 12 31 15 16
3 34 9 40 14 7 5 23 13 37 17 14 4 43 15 65 25 22 10 94 39 159 65 66 26 127
51 135 56 9 4 48 20 86 35 39 14 75 29 80 32 6 4 15 7 20 9 11 2 149 58 180
73 11 5 81 34 155 64 74 30 187 75 250 101 63 26 135 55 160 64 25 10 61 25
80 33 19 9 60 25 90 37 30 12 64 26 75 30 51 21 97 40 330 132 138 55 259 104
270 109 11 5 119 48 240 95 281 110 354 147 425 215 87 83 124 170 135 320 3
36 7 76 10 90 2 14 7 54 10 90 3 36 8 81 10 100 3 19 7 55 10 80 6 61 15 138
20 180 3 19 16 130 30 245 14 116 27 226 30 245 2 19 7 58 10 85 12 100 16
130 20 155 2 14 7 50 10 80 3 30 7 64 9 75 2 11 7 52 11 90 4 39 9 78 10 87 2
9 6 44 10 77 3 33 7 68 9 78 2 10 7 45 11 78 3 33 11 94 16 135 5 41 12 95 15
120 3 25 12 99 20 165 8 66 17 138 19 160 2 22 7 60 10 85 3 25 8 65 10 90 3
25 8 59 10 75 3 17 7 50 10 75 3 25 7 63 10 85 2 22 7 67 11 100 3 33 8 68 10
78 2 10 6 48 9 85 3 37 8 74 10 82 2 8 7 47 11 85 3 39 8 79 10 90 2 10 6 49
10 85 3 36 8 72 9 81 2 9 6 40 10 70 3 30 8 72 11 94 3 22 8 60 10 85 2 25 6
61 8 80 13 107 18 147 21 170 3 14 7 48 10 75 8 74 38 312 50 405 2 14 8 70
15 125 6 55 13 111 15 125 7 47 15 105 20 155 3 28 8 61 10 75 4 26 11 82 20
153 3 23 8 53 10 67 2 14 7 49 10 79 4 30 8 61 10 70 1 9 6 36 10 61 10 57 40
129 68 158 51 56 134 75 377 87 103 6 170 11 260 20 25 2 72 7 105 10 94 9
157 16 195 20 19 3 60 7 90 9 30 3 89 8 130 11 41 4 93 8 114 11 21 2 75 6
120 9 167 12 196 15 241 25 58 13 110 39 154 77 l34 30 -1 96 c0 52 -5 104
-10 114 -6 10 -10 21 -10 26 0 4 -3 20 -6 35 -11 49 -16 76 -22 122 -3 25 -7
54 -9 65 -35 217 -19 166 -245 770 -27 72 -101 272 -165 445 -64 173 -132 356
-150 405 -19 50 -53 142 -76 205 -23 63 -47 126 -52 140 -6 14 -11 30 -13 35
-2 9 -107 294 -176 480 -17 44 -39 105 -50 135 -11 30 -26 71 -33 90 -17 43
-155 420 -201 550 -19 52 -38 104 -43 115 -5 11 -29 76 -54 145 -25 69 -69
188 -97 265 -29 77 -65 178 -82 224 -16 46 -34 95 -40 110 -6 14 -12 28 -12
31 -1 3 -6 19 -13 35 -6 17 -30 82 -52 145 -23 63 -45 124 -50 135 -5 11 -37
97 -71 190 -120 332 -142 390 -150 410 -5 11 -22 58 -39 105 -16 47 -59 166
-96 265 -36 99 -91 248 -121 330 -31 83 -78 209 -105 281 -27 72 -49 136 -49
143 0 6 -4 19 -10 29 -9 16 -22 49 -109 287 -22 61 -67 184 -101 275 -34 91
-63 170 -64 175 -2 6 -6 17 -9 25 -4 8 -38 101 -76 205 -38 105 -126 345 -196
535 -70 190 -138 377 -151 415 -14 39 -29 79 -34 90 -5 11 -20 52 -33 90 -14
39 -63 174 -110 300 -47 127 -156 424 -242 660 -86 237 -176 482 -200 545 -23
63 -57 156 -75 205 -17 50 -38 104 -46 122 -8 17 -14 34 -14 37 0 7 -100 284
-125 346 -8 19 -42 112 -76 205 -117 324 -138 380 -169 465 -18 47 -42 114
-55 150 -13 36 -37 103 -55 150 -17 47 -45 123 -62 170 -16 47 -33 94 -38 105
-11 27 -37 98 -110 300 -34 94 -65 179 -70 190 -5 11 -30 79 -56 150 -25 72
-60 166 -76 210 -30 82 -78 212 -142 390 -20 55 -39 107 -43 115 -3 8 -7 20
-8 25 -4 15 -52 140 -68 178 -8 17 -27 61 -42 97 -51 120 -150 314 -179 350
-7 8 -18 26 -24 40 -13 27 -77 115 -134 185 -71 86 -203 207 -362 331 -92 71
-177 137 -189 146 -146 113 -540 430 -557 448 -3 3 -27 23 -55 45 -27 21 -52
42 -55 45 -3 3 -30 25 -60 50 -56 46 -80 66 -116 97 -12 10 -43 36 -70 58 -26
22 -111 93 -188 159 -78 65 -163 137 -191 160 -27 22 -65 55 -85 72 -19 17
-48 42 -64 55 -16 13 -34 29 -40 34 -6 6 -69 60 -141 120 -71 60 -132 111
-135 114 -3 4 -45 40 -95 81 -49 41 -92 77 -95 80 -4 5 -605 505 -779 649 -24
20 -52 43 -63 53 -10 9 -37 31 -58 48 -21 17 -48 40 -60 50 -12 10 -39 33 -60
50 -21 17 -48 40 -60 50 -12 10 -39 33 -62 52 -23 18 -46 38 -52 43 -6 6 -36
30 -66 55 -30 25 -66 55 -80 66 -45 39 -153 128 -214 178 -34 28 -66 55 -72
60 -6 6 -30 27 -54 46 -24 19 -48 40 -54 45 -6 6 -36 30 -66 55 -30 25 -57 47
-60 50 -3 3 -30 25 -60 50 -30 25 -57 47 -60 50 -3 3 -57 48 -120 100 -63 52
-117 97 -120 100 -3 3 -43 37 -90 75 -106 88 -130 107 -144 120 -12 12 -564
472 -830 693 -166 138 -251 210 -270 227 -6 6 -31 26 -56 46 -25 20 -55 45
-66 55 -12 11 -43 37 -70 59 -27 22 -105 87 -174 145 -69 58 -148 123 -174
145 -27 22 -56 47 -66 55 -10 8 -37 31 -61 51 -24 20 -114 94 -199 165 -86 71
-175 145 -199 164 -24 19 -48 40 -55 45 -6 6 -49 42 -96 80 -104 86 -130 107
-144 120 -6 6 -47 40 -91 75 -66 53 -266 229 -285 250 -35 39 -345 290 -358
290 -5 0 -17 9 -27 20 -10 11 -24 20 -32 20 -7 0 -13 3 -13 8 0 4 -10 12 -23
18 -12 6 -59 30 -104 53 -46 22 -102 48 -125 56 -38 13 -394 15 -2858 14
-1548 -1 -2840 -5 -2870 -10z m-7185 -14574 c105 -3 204 -8 220 -10 65 -9 221
-27 235 -27 42 -1 315 -53 459 -89 469 -115 910 -307 1326 -577 82 -53 237
-160 280 -194 6 -5 35 -27 65 -50 30 -24 57 -45 60 -48 3 -3 48 -41 100 -85
162 -136 384 -351 540 -524 41 -46 80 -88 85 -95 6 -6 52 -60 101 -121 163
-197 288 -373 470 -655 101 -158 291 -522 378 -725 26 -60 55 -126 63 -145 50
-111 163 -437 218 -627 25 -87 49 -171 54 -188 29 -93 118 -516 136 -645 3
-25 8 -52 10 -60 5 -15 10 -55 20 -140 3 -25 8 -52 10 -60 2 -8 7 -46 11 -85
3 -38 8 -78 10 -87 1 -10 6 -59 10 -110 3 -51 8 -102 10 -113 24 -127 23 -894
-1 -1110 -2 -16 -6 -61 -10 -100 -13 -139 -15 -161 -20 -200 -3 -22 -8 -51
-10 -65 -2 -14 -7 -43 -10 -65 -5 -35 -29 -183 -40 -240 -15 -83 -52 -253 -82
-370 -19 -77 -36 -147 -38 -155 -2 -8 -18 -60 -35 -115 -17 -55 -35 -116 -40
-135 -5 -19 -16 -53 -25 -75 -10 -21 -18 -46 -20 -54 -5 -28 -104 -288 -161
-424 -57 -137 -243 -519 -311 -642 -104 -185 -196 -339 -205 -343 -5 -2 -8 -8
-8 -13 0 -5 -16 -32 -35 -59 -19 -27 -35 -54 -35 -59 0 -5 -3 -11 -7 -13 -5
-1 -30 -37 -58 -78 -27 -41 -54 -79 -58 -85 -4 -5 -38 -50 -75 -100 -157 -213
-270 -343 -487 -561 -189 -189 -240 -236 -400 -364 -511 -411 -1113 -709
-1772 -880 -84 -22 -162 -41 -175 -44 -13 -2 -43 -9 -68 -15 -92 -21 -339 -59
-480 -75 -225 -25 -708 -26 -860 -2 -14 3 -50 7 -80 11 -80 9 -252 35 -259 39
-3 2 -24 7 -46 10 -166 26 -565 147 -760 231 -16 7 -59 25 -95 41 -106 45
-397 196 -505 261 -163 98 -488 320 -515 352 -3 3 -34 28 -70 56 -36 27 -74
58 -85 67 -147 125 -217 189 -385 355 -96 96 -206 210 -245 255 -38 45 -75 86
-80 92 -18 19 -169 209 -211 266 -160 214 -285 408 -413 639 -74 132 -211 403
-211 416 0 2 -14 34 -31 72 -52 115 -56 125 -92 218 -111 284 -182 506 -266
826 -29 112 -35 137 -46 197 -3 15 -14 65 -25 112 -10 47 -21 101 -24 120 -3
19 -10 58 -15 85 -6 28 -12 64 -15 80 -2 17 -11 73 -20 125 -14 92 -21 139
-32 225 -2 22 -6 56 -9 75 -9 69 -24 259 -30 375 -5 103 -6 488 -1 584 14 254
17 298 20 321 3 14 7 61 11 105 3 44 8 91 9 105 2 14 7 54 10 90 4 36 9 76 11
90 2 14 7 45 10 70 3 25 13 86 21 135 8 50 17 104 20 120 4 27 27 148 38 200
36 166 52 235 90 375 161 600 396 1146 705 1640 61 98 154 238 190 286 9 12
23 32 31 44 14 21 87 117 113 150 7 8 28 35 47 60 49 64 177 217 227 270 23
25 51 56 63 70 12 14 74 79 139 145 451 459 871 768 1393 1023 82 40 151 72
154 72 3 0 20 6 37 14 87 40 321 126 412 152 229 64 241 67 300 79 17 3 37 8
45 10 8 2 29 7 45 10 17 2 41 7 55 10 14 3 40 8 59 11 18 3 43 7 55 10 28 5
236 31 306 38 30 3 129 9 220 12 91 4 167 8 168 10 2 1 9 1 15 -1 7 -2 98 -6
202 -10z m15275 -1390 c135 -11 174 -15 245 -26 555 -79 987 -230 1430 -498
102 -62 334 -225 380 -268 11 -10 40 -34 65 -54 115 -93 328 -306 440 -439 30
-35 61 -71 67 -78 7 -7 34 -41 60 -75 26 -34 51 -66 56 -72 45 -55 215 -309
282 -420 185 -306 368 -702 480 -1039 38 -113 83 -258 91 -291 1 -5 16 -66 34
-135 27 -110 73 -319 85 -390 15 -92 34 -212 40 -251 3 -25 8 -57 10 -70 2
-13 6 -46 10 -74 3 -27 7 -68 10 -90 3 -22 7 -62 9 -90 2 -27 7 -81 11 -120
12 -132 14 -170 21 -385 13 -377 8 -860 -11 -958 -1 -9 -6 -53 -10 -96 -4 -43
-8 -86 -10 -95 -2 -9 -6 -44 -10 -76 -4 -33 -9 -69 -11 -80 -2 -10 -6 -35 -9
-55 -3 -20 -8 -47 -10 -60 -3 -14 -10 -52 -15 -85 -11 -67 -62 -314 -86 -415
-9 -36 -17 -72 -19 -81 -41 -195 -285 -1002 -362 -1199 -4 -8 -7 -17 -7 -20
-1 -3 -7 -18 -13 -35 -7 -16 -39 -109 -73 -205 -34 -96 -65 -184 -70 -195 -5
-11 -43 -114 -85 -230 -42 -115 -80 -219 -85 -230 -5 -11 -42 -105 -83 -210
-184 -468 -366 -867 -580 -1265 -62 -117 -221 -385 -229 -388 -4 -2 -8 -8 -8
-14 0 -6 -16 -33 -35 -59 -19 -27 -35 -51 -35 -54 0 -4 -101 -152 -182 -268
-28 -40 -113 -153 -123 -163 -5 -6 -21 -26 -35 -44 -14 -18 -30 -38 -35 -44
-6 -6 -30 -36 -55 -66 -166 -204 -443 -464 -645 -606 -38 -27 -71 -52 -73 -56
-2 -5 -7 -8 -12 -8 -4 0 -50 -27 -102 -59 -166 -104 -387 -205 -593 -271 -152
-49 -257 -73 -425 -99 -60 -10 -87 -13 -220 -26 -101 -10 -409 -4 -533 10
-610 69 -1272 306 -2007 718 -19 11 -77 46 -129 78 -51 33 -94 59 -96 59 -3 0
-129 86 -225 152 -30 21 -66 46 -80 56 -14 9 -27 19 -30 22 -3 3 -32 25 -65
50 -65 48 -272 220 -345 285 -123 110 -377 372 -490 505 -54 64 -242 306 -265
342 -5 8 -46 69 -90 134 -44 65 -84 126 -90 135 -230 393 -298 528 -430 849
-69 169 -204 562 -221 644 -2 10 -8 33 -14 51 -6 18 -13 41 -15 51 -2 10 -16
64 -30 119 -21 86 -48 202 -61 270 -2 11 -8 43 -14 70 -16 77 -19 93 -34 190
-19 117 -34 218 -41 280 -3 28 -8 68 -11 90 -5 44 -8 81 -21 255 -10 144 -10
639 0 785 10 163 38 436 52 520 9 54 15 89 20 130 5 33 24 138 61 330 8 45 55
244 79 335 249 961 711 1960 1264 2730 67 94 237 317 251 330 3 3 25 30 50 60
25 30 49 60 55 66 5 6 33 37 60 69 145 170 410 434 605 604 171 148 328 273
465 370 159 113 477 321 490 321 2 0 38 20 79 45 115 68 477 245 531 260 6 2
36 15 68 29 31 14 57 23 57 20 0 -4 6 -2 13 4 11 9 302 109 341 117 10 3 42
11 70 19 55 15 212 52 261 60 17 3 41 8 55 11 14 3 45 8 70 11 25 3 52 7 60 9
8 2 42 7 75 10 33 4 71 8 85 11 14 2 84 7 155 10 72 4 131 7 132 9 5 4 290 -4
363 -10z m-8920 -9637 c60 -117 134 -254 141 -263 4 -5 25 -44 47 -85 85 -163
125 -235 132 -245 4 -5 35 -64 70 -130 35 -66 66 -124 70 -130 4 -5 29 -50 55
-100 26 -49 61 -115 78 -145 31 -57 54 -100 127 -235 24 -44 54 -100 68 -125
23 -42 38 -69 126 -232 18 -35 50 -94 71 -133 21 -38 45 -83 55 -100 9 -16 39
-70 65 -120 26 -49 60 -112 75 -140 15 -27 44 -80 64 -117 96 -180 110 -205
126 -233 10 -16 39 -70 65 -120 26 -49 60 -112 75 -140 15 -27 44 -81 65 -120
21 -38 45 -83 55 -100 9 -16 39 -70 65 -120 26 -49 61 -115 78 -145 35 -64 69
-127 122 -225 37 -68 52 -96 130 -240 21 -38 55 -101 75 -140 21 -38 50 -92
65 -120 96 -175 155 -283 155 -287 0 -2 -855 -3 -1900 -3 -1260 0 -1900 3
-1900 10 0 9 85 269 182 555 21 63 41 122 43 130 2 8 17 53 33 100 16 47 44
130 61 185 18 55 35 107 38 115 3 8 7 20 9 25 1 6 145 435 319 955 174 520
323 965 330 990 53 176 429 1279 435 1275 4 -3 18 -24 30 -47z m-2943 -7480
c-3 -8 -6 -5 -6 6 -1 11 2 17 5 13 3 -3 4 -12 1 -19z"/>
</g>
</svg>
